<svg xmlns="http://www.w3.org/2000/svg" viewBox="31.431215286254883 0 751.4312133789062 515.7427368164062" width="751.4312133789062" height="515.7427368164062" style="">
  <defs id="icon-defs"/>
  <defs id="infographic-defs">
    <symbol xmlns="http://www.w3.org/2000/svg" width="1em" height="1em" viewBox="0 0 24 24" id="rsc-1271274651">
      <path fill="currentColor" d="M17 9H7V7h10m0 6H7v-2h10m-3 6H7v-2h7M12 3a1 1 0 0 1 1 1a1 1 0 0 1-1 1a1 1 0 0 1-1-1a1 1 0 0 1 1-1m7 0h-4.18C14.4 1.84 13.3 1 12 1s-2.4.84-2.82 2H5a2 2 0 0 0-2 2v14a2 2 0 0 0 2 2h14a2 2 0 0 0 2-2V5a2 2 0 0 0-2-2"/>
    </symbol>
    <symbol xmlns="http://www.w3.org/2000/svg" width="1em" height="1em" viewBox="0 0 24 24" id="rsc-775254168">
      <path fill="currentColor" d="M10 16.5v-9l6 4.5M12 2A10 10 0 0 0 2 12a10 10 0 0 0 10 10a10 10 0 0 0 10-10A10 10 0 0 0 12 2"/>
    </symbol>
    <symbol xmlns="http://www.w3.org/2000/svg" width="1em" height="1em" viewBox="0 0 24 24" id="rsc-1447021952">
      <path fill="currentColor" d="M9.5 3A6.5 6.5 0 0 1 16 9.5c0 1.61-.59 3.09-1.56 4.23l.27.27h.79l5 5l-1.5 1.5l-5-5v-.79l-.27-.27A6.52 6.52 0 0 1 9.5 16A6.5 6.5 0 0 1 3 9.5A6.5 6.5 0 0 1 9.5 3m0 2C7 5 5 7 5 9.5S7 14 9.5 14S14 12 14 9.5S12 5 9.5 5"/>
    </symbol>
    <symbol xmlns="http://www.w3.org/2000/svg" width="1em" height="1em" viewBox="0 0 24 24" id="rsc-1446490147">
      <path fill="currentColor" d="M12 6v3l4-4l-4-4v3a8 8 0 0 0-8 8c0 1.57.46 3.03 1.24 4.26L6.7 14.8A5.9 5.9 0 0 1 6 12a6 6 0 0 1 6-6m6.76 1.74L17.3 9.2c.44.84.7 1.8.7 2.8a6 6 0 0 1-6 6v-3l-4 4l4 4v-3a8 8 0 0 0 8-8c0-1.57-.46-3.03-1.24-4.26"/>
    </symbol>
  </defs>
  <g id="infographic-container">
    <!-- 标题部分：foreignObject → text -->
    <g transform="translate(31.4312156329172, 0)">
      <!-- 主标题：PDCA循环 -->
      <text x="360" y="22" fill="#262626" font-size="24" text-anchor="middle" dominant-baseline="middle">
        PDCA循环
      </text>
      <!-- 副标题 -->
      <text x="360" y="64" fill="#5a5a5a" font-size="16" text-anchor="middle">
        PDCA 是由 Plan、Do、Check、Action 四个阶段组成的持续改进循环。
      </text>
    </g>

    <g transform="translate(0, 138)">
      <g>
        <path d="M 410 60 L 409.99999999999994 0 A 180 180 0 0 1 589.3150456565143 164.3119663054215 L 529.5433637710095 169.541310870281 A 120 120 0 0 0 410 60 Z" fill="#1783FF40" width="360" height="360"/>
        <path d="M 415.03865610751575 54.10078656071677 L 416.95814414847416 6.13918144098983 A 174 174 0 0 1 582.5927834329714 157.91536491450552 L 534.9809811066344 164.00767804153847 A 126 126 0 0 0 415.03865610751575 54.10078656071677 Z" fill="#1783FF" width="360" height="360"/>
        <path d="M 530 179.99999999999997 L 590 179.99999999999994 A 180 180 0 0 1 425.6880336945787 359.31504565651414 L 420.4586891297191 299.54336377100947 A 120 120 0 0 0 530 179.99999999999997 Z" fill="#00C9C940" width="360" height="360"/>
        <path d="M 535.8992134392832 185.03865610751578 L 583.8608185590101 186.95814414847416 A 174 174 0 0 1 432.0846350854945 352.5927834329714 L 425.9923219584615 304.98098110663443 A 126 126 0 0 0 535.8992134392832 185.03865610751578 Z" fill="#00C9C9" width="360" height="360"/>
        <path d="M 410.00000000000006 300 L 410.00000000000006 360 A 180 180 0 0 1 230.6849543434858 195.6880336945785 L 290.45663622899053 190.458689129719 A 120 120 0 0 0 410.00000000000006 300 Z" fill="#F0884D40" width="360" height="360"/>
        <path d="M 404.96134389248414 305.89921343928324 L 403.0418558515257 353.86081855901017 A 174 174 0 0 1 237.4072165670287 202.08463508549482 L 285.0190188933656 195.99232195846176 A 126 126 0 0 0 404.96134389248414 305.89921343928324 Z" fill="#F0884D" width="360" height="360"/>
        <path d="M 290 180.00000000000006 L 230 180.00000000000006 A 180 180 0 0 1 394.3119663054215 0.6849543434857992 L 399.541310870281 60.45663622899053 A 120 120 0 0 0 290 180.00000000000006 Z" fill="#D580FF40" width="360" height="360"/>
        <path d="M 284.10078656071676 174.96134389248402 L 236.13918144098983 173.04185585152555 A 174 174 0 0 1 387.9153649145052 7.407216567028712 L 394.0076780415382 55.01901889336561 A 126 126 0 0 0 284.10078656071676 174.96134389248402 Z" fill="#D580FF" width="360" height="360"/>
      </g>
      <g>
        <ellipse x="473.33853114234904" y="31.40839947848137" width="76" height="76" fill="#ffffff" cx="511.33853114234904" cy="69.40839947848137" rx="38" ry="38"/>
        <ellipse x="477.33853114234904" y="35.40839947848137" width="68" height="68" fill="#1783FF" cx="511.33853114234904" cy="69.40839947848137" rx="34" ry="34"/>
        <use x="493.33853114234904" y="51.40839947848137" width="36" height="36" fill="#fff" href="#rsc-1271274651" style="color: rgb(255, 255, 255);"/>
        <ellipse x="482.59160052151867" y="243.33853114234904" width="76" height="76" fill="#ffffff" cx="520.5916005215187" cy="281.33853114234904" rx="38" ry="38"/>
        <ellipse x="486.59160052151867" y="247.33853114234904" width="68" height="68" fill="#00C9C9" cx="520.5916005215187" cy="281.33853114234904" rx="34" ry="34"/>
        <use x="502.59160052151867" y="263.33853114234904" width="36" height="36" fill="#fff" href="#rsc-775254168" style="color: rgb(255, 255, 255);"/>
        <ellipse x="270.661468857651" y="252.59160052151861" width="76" height="76" fill="#ffffff" cx="308.661468857651" cy="290.5916005215186" rx="38" ry="38"/>
        <ellipse x="274.661468857651" y="256.5916005215186" width="68" height="68" fill="#F0884D" cx="308.661468857651" cy="290.5916005215186" rx="34" ry="34"/>
        <use x="290.661468857651" y="272.5916005215186" width="36" height="36" fill="#fff" href="#rsc-1447021952" style="color: rgb(255, 255, 255);"/>
        <ellipse x="261.40839947848133" y="40.661468857651" width="76" height="76" fill="#ffffff" cx="299.40839947848133" cy="78.661468857651" rx="38" ry="38"/>
        <ellipse x="265.40839947848133" y="44.661468857651" width="68" height="68" fill="#D580FF" cx="299.40839947848133" cy="78.661468857651" rx="34" ry="34"/>
        <use x="281.40839947848133" y="60.661468857651" width="36" height="36" fill="#fff" href="#rsc-1446490147" style="color: rgb(255, 255, 255);"/>
      </g>
      <g>
        <!-- 右上 Plan 文本：foreignObject → text -->
        <g transform="translate(573.84616845547, -17.74273990371367)">
          <use x="0" y="0" width="30" height="30" fill="#5a5a5a" href="#rsc-1271274651" style="color: rgb(90, 90, 90);"/>
          <g transform="translate(34, 0)">
            <!-- 标题 Plan -->
            <text x="0" y="18" fill="#262626" font-size="18" font-weight="bold" text-anchor="start">
              Plan
            </text>
            <!-- 描述 -->
            <text x="0" y="48" fill="#5a5a5a" font-size="14" text-anchor="start">
              计划阶段：明确目标、制定方案与资源安排，为后续执行打好基础。
            </text>
          </g>
        </g>

        <!-- 右下 Do 文本 -->
        <g transform="translate(582.8624312658344, 292.1261146217685)">
          <use x="0" y="0" width="30" height="30" fill="#5a5a5a" href="#rsc-775254168" style="color: rgb(90, 90, 90);"/>
          <g transform="translate(34, 0)">
            <!-- 标题 Do -->
            <text x="0" y="18" fill="#262626" font-size="18" font-weight="bold" text-anchor="start">
              Do
            </text>
            <!-- 描述 -->
            <text x="0" y="48" fill="#5a5a5a" font-size="14" text-anchor="start">
              执行阶段：按照既定计划落实具体行动，实施对应的方案与措施。
            </text>
          </g>
        </g>

        <!-- 左下 Check 文本 -->
        <g transform="translate(46.15383154453002, 307.7427399037135)">
          <g>
            <!-- 标题 Check（右对齐） -->
            <text x="166" y="18" fill="#262626" font-size="18" font-weight="bold" text-anchor="end">
              Check
            </text>
            <!-- 描述（右对齐） -->
            <text x="166" y="48" fill="#5a5a5a" font-size="14" text-anchor="end">
              检查阶段：对执行结果进行检查与评估，识别偏差与问题。
            </text>
          </g>
          <use x="170" y="0" width="30" height="30" fill="#5a5a5a" href="#rsc-1447021952" style="color: rgb(90, 90, 90);"/>
        </g>

        <!-- 左上 Action 文本 -->
        <g transform="translate(37.137568734165484, -2.1261146217684086)">
          <g>
            <!-- 标题 Action（右对齐） -->
            <text x="166" y="18" fill="#262626" font-size="18" font-weight="bold" text-anchor="end">
              Action
            </text>
            <!-- 描述（右对齐） -->
            <text x="166" y="48" fill="#5a5a5a" font-size="14" text-anchor="end">
              处理与改进阶段：根据检查结果进行纠偏与优化，形成新的标准并进入下一轮循环。
            </text>
          </g>
          <use x="170" y="0" width="30" height="30" fill="#5a5a5a" href="#rsc-1446490147" style="color: rgb(90, 90, 90);"/>
        </g>
      </g>
    </g>
  </g>
</svg>
